<svg xmlns="http://www.w3.org/2000/svg" xmlns:xlink="http://www.w3.org/1999/xlink" width="127" zoomAndPan="magnify" viewBox="0 0 95.25 41.25" height="55" preserveAspectRatio="xMidYMid meet" version="1.0"><defs><g/></defs><g fill="#d9d9d9" fill-opacity="1"><g transform="translate(5.580278, 7.259506)"><g><path d="M 0.515625 -4.078125 L 5.21875 -5.984375 L 5.21875 -4.765625 L 2.140625 -3.5625 L 5.21875 -2.375 L 5.21875 -1.15625 L 0.515625 -3.0625 Z M 0.515625 -4.078125 "/></g></g></g><g fill="#d9d9d9" fill-opacity="1"><g transform="translate(11.269233, 7.259506)"><g><path d="M 0.515625 -7.09375 L 3.109375 -7.09375 C 3.828125 -7.09375 4.410156 -6.90625 4.859375 -6.53125 C 5.304688 -6.15625 5.53125 -5.613281 5.53125 -4.90625 C 5.53125 -4.195312 5.300781 -3.640625 4.84375 -3.234375 C 4.394531 -2.828125 3.816406 -2.625 3.109375 -2.625 L 2.125 -2.625 L 2.125 0 L 0.515625 0 Z M 2.125 -3.921875 L 2.59375 -3.921875 C 2.945312 -3.921875 3.238281 -3.992188 3.46875 -4.140625 C 3.707031 -4.285156 3.828125 -4.523438 3.828125 -4.859375 C 3.828125 -5.191406 3.707031 -5.429688 3.46875 -5.578125 C 3.238281 -5.722656 2.945312 -5.796875 2.59375 -5.796875 L 2.125 -5.796875 Z M 2.125 -3.921875 "/></g></g></g><g fill="#d9d9d9" fill-opacity="1"><g transform="translate(16.992555, 7.259506)"><g><path d="M 4.96875 -2 L 1.78125 -2 C 1.78125 -1.6875 1.878906 -1.453125 2.078125 -1.296875 C 2.273438 -1.148438 2.492188 -1.078125 2.734375 -1.078125 C 2.984375 -1.078125 3.175781 -1.109375 3.3125 -1.171875 C 3.457031 -1.242188 3.625 -1.378906 3.8125 -1.578125 L 4.90625 -1.015625 C 4.445312 -0.253906 3.6875 0.125 2.625 0.125 C 1.957031 0.125 1.382812 -0.0976562 0.90625 -0.546875 C 0.4375 -1.003906 0.203125 -1.550781 0.203125 -2.1875 C 0.203125 -2.832031 0.4375 -3.382812 0.90625 -3.84375 C 1.382812 -4.300781 1.957031 -4.53125 2.625 -4.53125 C 3.320312 -4.53125 3.890625 -4.328125 4.328125 -3.921875 C 4.765625 -3.523438 4.984375 -2.953125 4.984375 -2.203125 C 4.984375 -2.097656 4.976562 -2.03125 4.96875 -2 Z M 1.828125 -2.84375 L 3.5 -2.84375 C 3.46875 -3.070312 3.378906 -3.242188 3.234375 -3.359375 C 3.085938 -3.484375 2.898438 -3.546875 2.671875 -3.546875 C 2.410156 -3.546875 2.207031 -3.476562 2.0625 -3.34375 C 1.914062 -3.21875 1.835938 -3.050781 1.828125 -2.84375 Z M 1.828125 -2.84375 "/></g></g></g><g fill="#d9d9d9" fill-opacity="1"><g transform="translate(22.174486, 7.259506)"><g><path d="M 0.8125 -0.546875 C 0.40625 -0.992188 0.203125 -1.546875 0.203125 -2.203125 C 0.203125 -2.859375 0.40625 -3.410156 0.8125 -3.859375 C 1.226562 -4.304688 1.753906 -4.53125 2.390625 -4.53125 C 2.972656 -4.53125 3.453125 -4.347656 3.828125 -3.984375 L 3.828125 -7.390625 L 5.359375 -7.390625 L 5.359375 0 L 3.84375 0 L 3.84375 -0.5 L 3.828125 -0.5 C 3.453125 -0.0820312 2.972656 0.125 2.390625 0.125 C 1.753906 0.125 1.226562 -0.0976562 0.8125 -0.546875 Z M 2.109375 -2.9375 C 1.910156 -2.75 1.8125 -2.503906 1.8125 -2.203125 C 1.8125 -1.898438 1.90625 -1.648438 2.09375 -1.453125 C 2.28125 -1.265625 2.53125 -1.171875 2.84375 -1.171875 C 3.144531 -1.171875 3.390625 -1.265625 3.578125 -1.453125 C 3.773438 -1.648438 3.875 -1.898438 3.875 -2.203125 C 3.875 -2.503906 3.773438 -2.75 3.578125 -2.9375 C 3.378906 -3.132812 3.132812 -3.234375 2.84375 -3.234375 C 2.550781 -3.234375 2.304688 -3.132812 2.109375 -2.9375 Z M 2.109375 -2.9375 "/></g></g></g><g fill="#d9d9d9" fill-opacity="1"><g transform="translate(28.043905, 7.259506)"><g><path d="M 0.515625 0 L 0.515625 -4.40625 L 2.03125 -4.40625 L 2.03125 -3.765625 L 2.046875 -3.765625 C 2.066406 -3.796875 2.085938 -3.828125 2.109375 -3.859375 C 2.140625 -3.890625 2.195312 -3.945312 2.28125 -4.03125 C 2.363281 -4.125 2.453125 -4.203125 2.546875 -4.265625 C 2.648438 -4.335938 2.773438 -4.398438 2.921875 -4.453125 C 3.078125 -4.503906 3.238281 -4.53125 3.40625 -4.53125 C 3.570312 -4.53125 3.734375 -4.507812 3.890625 -4.46875 C 4.054688 -4.425781 4.175781 -4.378906 4.25 -4.328125 L 4.359375 -4.265625 L 3.734375 -2.96875 C 3.546875 -3.132812 3.28125 -3.21875 2.9375 -3.21875 C 2.757812 -3.21875 2.601562 -3.175781 2.46875 -3.09375 C 2.332031 -3.007812 2.238281 -2.910156 2.1875 -2.796875 C 2.132812 -2.679688 2.09375 -2.582031 2.0625 -2.5 C 2.039062 -2.425781 2.03125 -2.367188 2.03125 -2.328125 L 2.03125 0 Z M 0.515625 0 "/></g></g></g><g fill="#d9d9d9" fill-opacity="1"><g transform="translate(32.32351, 7.259506)"><g><path d="M 0.9375 -0.515625 C 0.445312 -0.953125 0.203125 -1.507812 0.203125 -2.1875 C 0.203125 -2.875 0.457031 -3.4375 0.96875 -3.875 C 1.476562 -4.3125 2.109375 -4.53125 2.859375 -4.53125 C 3.597656 -4.53125 4.21875 -4.3125 4.71875 -3.875 C 5.226562 -3.4375 5.484375 -2.878906 5.484375 -2.203125 C 5.484375 -1.523438 5.234375 -0.96875 4.734375 -0.53125 C 4.242188 -0.09375 3.617188 0.125 2.859375 0.125 C 2.066406 0.125 1.425781 -0.0859375 0.9375 -0.515625 Z M 2.109375 -2.9375 C 1.910156 -2.75 1.8125 -2.503906 1.8125 -2.203125 C 1.8125 -1.898438 1.90625 -1.648438 2.09375 -1.453125 C 2.28125 -1.265625 2.53125 -1.171875 2.84375 -1.171875 C 3.144531 -1.171875 3.390625 -1.265625 3.578125 -1.453125 C 3.773438 -1.648438 3.875 -1.898438 3.875 -2.203125 C 3.875 -2.503906 3.773438 -2.75 3.578125 -2.9375 C 3.378906 -3.132812 3.132812 -3.234375 2.84375 -3.234375 C 2.550781 -3.234375 2.304688 -3.132812 2.109375 -2.9375 Z M 2.109375 -2.9375 "/></g></g></g><g fill="#d9d9d9" fill-opacity="1"><g transform="translate(38.007394, 7.259506)"><g/></g></g><g fill="#d9d9d9" fill-opacity="1"><g transform="translate(40.353437, 7.259506)"><g/></g></g><g fill="#d9d9d9" fill-opacity="1"><g transform="translate(42.69948, 7.259506)"><g/></g></g><g fill="#d9d9d9" fill-opacity="1"><g transform="translate(45.045523, 7.259506)"><g/></g></g><g fill="#d9d9d9" fill-opacity="1"><g transform="translate(47.391566, 7.259506)"><g/></g></g><g fill="#d9d9d9" fill-opacity="1"><g transform="translate(49.737609, 7.259506)"><g/></g></g><g fill="#d9d9d9" fill-opacity="1"><g transform="translate(52.083652, 7.259506)"><g/></g></g><g fill="#d9d9d9" fill-opacity="1"><g transform="translate(54.429695, 7.259506)"><g/></g></g><g fill="#d9d9d9" fill-opacity="1"><g transform="translate(56.775738, 7.259506)"><g/></g></g><g fill="#d9d9d9" fill-opacity="1"><g transform="translate(59.121781, 7.259506)"><g/></g></g><g fill="#d9d9d9" fill-opacity="1"><g transform="translate(61.467824, 7.259506)"><g/></g></g><g fill="#d9d9d9" fill-opacity="1"><g transform="translate(63.813867, 7.259506)"><g/></g></g><g fill="#d9d9d9" fill-opacity="1"><g transform="translate(66.15991, 7.259506)"><g/></g></g><g fill="#d9d9d9" fill-opacity="1"><g transform="translate(68.505953, 7.259506)"><g/></g></g><g fill="#d9d9d9" fill-opacity="1"><g transform="translate(70.851996, 7.259506)"><g/></g></g><g fill="#d9d9d9" fill-opacity="1"><g transform="translate(73.198039, 7.259506)"><g/></g></g><g fill="#d9d9d9" fill-opacity="1"><g transform="translate(75.544082, 7.259506)"><g/></g></g><g fill="#d9d9d9" fill-opacity="1"><g transform="translate(77.897894, 7.259506)"><g><path d="M 5.046875 -7.390625 L 1.515625 1.03125 L 0.203125 1.03125 L 3.734375 -7.390625 Z M 5.046875 -7.390625 "/></g></g></g><g fill="#d9d9d9" fill-opacity="1"><g transform="translate(83.148569, 7.259506)"><g><path d="M 0.46875 -2.375 L 3.546875 -3.5625 L 0.46875 -4.765625 L 0.46875 -5.984375 L 5.171875 -4.078125 L 5.171875 -3.0625 L 0.46875 -1.15625 Z M 0.46875 -2.375 "/></g></g></g><g fill="#d9d9d9" fill-opacity="1"><g transform="translate(41.141297, 8.399339)"><g><path d="M 4.125 -7.109375 L 7 0 L 5.265625 0 L 4.734375 -1.421875 L 2.03125 -1.421875 L 1.5 0 L -0.234375 0 L 2.625 -7.109375 Z M 4.1875 -2.84375 L 3.390625 -4.921875 L 3.375 -4.921875 L 2.578125 -2.84375 Z M 4.1875 -2.84375 "/></g></g></g><g fill="#d9d9d9" fill-opacity="1"><g transform="translate(47.901555, 8.399339)"><g><path d="M 0.515625 0 L 0.515625 -7.421875 L 2.046875 -7.421875 L 2.046875 0 Z M 0.515625 0 "/></g></g></g><g fill="#d9d9d9" fill-opacity="1"><g transform="translate(50.462519, 8.399339)"><g><path d="M 0.515625 0 L 0.515625 -7.421875 L 2.046875 -7.421875 L 2.046875 0 Z M 0.515625 0 "/></g></g></g><g fill="#d9d9d9" fill-opacity="1"><g transform="translate(53.023483, 8.399339)"><g><path d="M 0.8125 -0.546875 C 0.40625 -0.992188 0.203125 -1.546875 0.203125 -2.203125 C 0.203125 -2.859375 0.40625 -3.410156 0.8125 -3.859375 C 1.226562 -4.316406 1.753906 -4.546875 2.390625 -4.546875 C 2.984375 -4.546875 3.46875 -4.363281 3.84375 -4 L 3.84375 -4.421875 L 5.375 -4.421875 L 5.375 0 L 3.859375 0 L 3.859375 -0.5 L 3.84375 -0.5 C 3.46875 -0.0820312 2.984375 0.125 2.390625 0.125 C 1.753906 0.125 1.226562 -0.0976562 0.8125 -0.546875 Z M 2.109375 -2.953125 C 1.910156 -2.765625 1.8125 -2.515625 1.8125 -2.203125 C 1.8125 -1.898438 1.90625 -1.648438 2.09375 -1.453125 C 2.289062 -1.265625 2.546875 -1.171875 2.859375 -1.171875 C 3.148438 -1.171875 3.390625 -1.269531 3.578125 -1.46875 C 3.773438 -1.664062 3.875 -1.910156 3.875 -2.203125 C 3.875 -2.515625 3.773438 -2.765625 3.578125 -2.953125 C 3.378906 -3.148438 3.140625 -3.25 2.859375 -3.25 C 2.566406 -3.25 2.316406 -3.148438 2.109375 -2.953125 Z M 2.109375 -2.953125 "/></g></g></g><g fill="#d9d9d9" fill-opacity="1"><g transform="translate(58.91284, 8.399339)"><g><path d="M 2.4375 -4.546875 C 2.695312 -4.546875 2.945312 -4.515625 3.1875 -4.453125 C 3.4375 -4.398438 3.625 -4.347656 3.75 -4.296875 L 3.921875 -4.203125 L 3.421875 -3.203125 C 3.078125 -3.390625 2.75 -3.484375 2.4375 -3.484375 C 2.269531 -3.484375 2.148438 -3.460938 2.078125 -3.421875 C 2.003906 -3.390625 1.96875 -3.320312 1.96875 -3.21875 C 1.96875 -3.195312 1.96875 -3.171875 1.96875 -3.140625 C 1.976562 -3.117188 1.988281 -3.097656 2 -3.078125 C 2.019531 -3.054688 2.035156 -3.039062 2.046875 -3.03125 C 2.066406 -3.019531 2.09375 -3.003906 2.125 -2.984375 C 2.164062 -2.960938 2.195312 -2.945312 2.21875 -2.9375 C 2.238281 -2.9375 2.269531 -2.925781 2.3125 -2.90625 C 2.351562 -2.882812 2.382812 -2.867188 2.40625 -2.859375 C 2.4375 -2.859375 2.476562 -2.847656 2.53125 -2.828125 C 2.582031 -2.804688 2.625 -2.796875 2.65625 -2.796875 C 2.832031 -2.742188 2.988281 -2.6875 3.125 -2.625 C 3.257812 -2.5625 3.398438 -2.472656 3.546875 -2.359375 C 3.691406 -2.253906 3.800781 -2.117188 3.875 -1.953125 C 3.957031 -1.785156 4 -1.59375 4 -1.375 C 4 -0.375 3.300781 0.125 1.90625 0.125 C 1.59375 0.125 1.289062 0.078125 1 -0.015625 C 0.71875 -0.109375 0.515625 -0.207031 0.390625 -0.3125 L 0.203125 -0.46875 L 0.8125 -1.515625 C 0.863281 -1.472656 0.925781 -1.421875 1 -1.359375 C 1.070312 -1.304688 1.207031 -1.234375 1.40625 -1.140625 C 1.601562 -1.046875 1.773438 -1 1.921875 -1 C 2.234375 -1 2.390625 -1.101562 2.390625 -1.3125 C 2.390625 -1.414062 2.347656 -1.492188 2.265625 -1.546875 C 2.179688 -1.597656 2.039062 -1.660156 1.84375 -1.734375 C 1.65625 -1.804688 1.507812 -1.867188 1.40625 -1.921875 C 1.125 -2.066406 0.90625 -2.226562 0.75 -2.40625 C 0.59375 -2.59375 0.515625 -2.832031 0.515625 -3.125 C 0.515625 -3.570312 0.6875 -3.921875 1.03125 -4.171875 C 1.375 -4.421875 1.84375 -4.546875 2.4375 -4.546875 Z M 2.4375 -4.546875 "/></g></g></g><g fill="#d9d9d9" fill-opacity="1"><g transform="translate(7.70158, 38.023374)"><g><path d="M 15.796875 -28.4375 C 20.347656 -28.4375 23.6875 -27.304688 25.8125 -25.046875 C 27.9375 -22.785156 28.503906 -19.328125 27.515625 -14.671875 C 27.179688 -13.035156 26.59375 -11.359375 25.75 -9.640625 C 24.90625 -7.929688 23.742188 -6.347656 22.265625 -4.890625 C 20.796875 -3.429688 18.957031 -2.25 16.75 -1.34375 C 14.539062 -0.445312 11.921875 0 8.890625 0 L -1.140625 0 L -1.140625 -0.25 L 1.390625 -2.4375 L 7.296875 -26 L 5.390625 -28.1875 L 5.390625 -28.4375 Z M 19.046875 -14.15625 C 20.222656 -18.90625 20.613281 -22.347656 20.21875 -24.484375 C 19.832031 -26.617188 18.375 -27.6875 15.84375 -27.6875 L 15.59375 -27.6875 L 8.890625 -0.84375 L 9.65625 -0.84375 C 10.75 -0.84375 11.722656 -0.992188 12.578125 -1.296875 C 13.429688 -1.609375 14.207031 -2.222656 14.90625 -3.140625 C 15.613281 -4.054688 16.296875 -5.394531 16.953125 -7.15625 C 17.617188 -8.925781 18.316406 -11.257812 19.046875 -14.15625 Z M 19.046875 -14.15625 "/></g></g></g><g fill="#d9d9d9" fill-opacity="1"><g transform="translate(35.680005, 38.023374)"><g><path d="M 27.890625 -28.4375 L 24.90625 -16.484375 L 24.65625 -16.515625 L 23.515625 -20.6875 C 23.117188 -22.175781 22.722656 -23.382812 22.328125 -24.3125 C 21.941406 -25.238281 21.488281 -25.945312 20.96875 -26.4375 C 20.445312 -26.9375 19.800781 -27.269531 19.03125 -27.4375 C 18.257812 -27.601562 17.296875 -27.6875 16.140625 -27.6875 L 15.59375 -27.6875 L 12.34375 -14.703125 L 12.71875 -14.703125 C 13.457031 -14.703125 14.160156 -14.832031 14.828125 -15.09375 C 15.503906 -15.363281 16.285156 -15.921875 17.171875 -16.765625 C 18.054688 -17.609375 19.128906 -18.875 20.390625 -20.5625 L 20.65625 -20.484375 L 17.578125 -8.21875 L 17.3125 -8.265625 C 16.894531 -9.835938 16.460938 -11.035156 16.015625 -11.859375 C 15.566406 -12.691406 15.070312 -13.253906 14.53125 -13.546875 C 14 -13.835938 13.367188 -13.984375 12.640625 -13.984375 L 12.171875 -13.984375 L 8.84375 -0.765625 L 9.5625 -0.765625 C 10.71875 -0.765625 11.707031 -0.894531 12.53125 -1.15625 C 13.363281 -1.425781 14.160156 -1.867188 14.921875 -2.484375 C 15.679688 -3.097656 16.523438 -3.925781 17.453125 -4.96875 C 18.378906 -6.007812 19.515625 -7.300781 20.859375 -8.84375 C 21.335938 -9.351562 21.816406 -9.875 22.296875 -10.40625 C 22.773438 -10.9375 23.25 -11.472656 23.71875 -12.015625 L 23.984375 -11.96875 L 21.03125 0 L -1.140625 0 L -1.140625 -0.25 L 1.390625 -2.4375 L 7.296875 -26 L 5.390625 -28.1875 L 5.390625 -28.4375 Z M 27.890625 -28.4375 "/></g></g></g><g fill="#d9d9d9" fill-opacity="1"><g transform="translate(62.141528, 38.023374)"><g><path d="M 17.578125 -28.1875 L 17.609375 -28.4375 L 28.703125 -28.4375 L 28.65625 -28.1875 L 9.734375 0.625 L 9.265625 0.625 L 4.34375 -28.1875 L 4.375 -28.4375 L 15.421875 -28.4375 L 15.421875 -28.1875 L 13.40625 -26 L 15.671875 -9.78125 L 15.84375 -9.78125 L 17.3125 -12.34375 C 17.90625 -13.332031 18.425781 -14.535156 18.875 -15.953125 C 19.320312 -17.367188 19.625 -18.84375 19.78125 -20.375 C 19.9375 -21.90625 19.851562 -23.363281 19.53125 -24.75 C 19.207031 -26.144531 18.554688 -27.289062 17.578125 -28.1875 Z M 17.578125 -28.1875 "/></g></g></g></svg>